<svg width="10mm" height="10mm" version="1.1" viewBox="0 0 10 10" xmlns="http://www.w3.org/2000/svg">
 <title>TDGraph_3</title>
 <defs>
  <marker id="SquareS" overflow="visible" orient="auto">
   <path transform="scale(.2)" d="m-5-5v10h10v-10h-10z" fill="#00f" fill-rule="evenodd" stroke="#00f" stroke-width="1pt"/>
  </marker>
  <marker id="TriangleOutM" overflow="visible" orient="auto">
   <path transform="scale(.4)" d="m5.77 0-8.65 5v-10l8.65 5z" fill="#00f" fill-rule="evenodd" stroke="#00f" stroke-width="1pt"/>
  </marker>
  <marker id="TriangleInM" overflow="visible" orient="auto">
   <path transform="scale(-.4)" d="m5.77 0-8.65 5v-10l8.65 5z" fill="#00f" fill-rule="evenodd" stroke="#00f" stroke-width="1pt"/>
  </marker>
 </defs>
 <g transform="translate(-1.9076865,-288.10791)">
  <rect x="1.9076865" y="288.10791" width="10" height="10" fill="#fff"/>
  <text x="0.8504464" y="292.29892" fill="#000000" font-family="sans-serif" font-size="10.58333302px" letter-spacing="0px" stroke-width=".26458332" word-spacing="0px" style="line-height:1.25" xml:space="preserve"><tspan x="0.8504464" y="301.66269" stroke-width=".26458332"/></text>
  <text x="9.4057865" y="290.86804" fill="#00ff00" font-family="sans-serif" font-size="10.58333302px" letter-spacing="0px" stroke-width=".26458332" word-spacing="0px" style="line-height:1.25" xml:space="preserve"><tspan x="9.4057865" y="290.86804" fill="#000000" font-family="'Source Code Pro'" font-size="4.23333311px" font-weight="bold" stroke-width=".26458332">A</tspan></text>
  <path d="m2.9076865 293.17345 0.4967093-0.0234 0.5378799 0.44434h1.2160763l0.3274052-1.80073 1.403165-0.0234 0.1169305 0.86529h1.2394623l0.3274052 2.1749h0.9120574l0.280633-1.66041h0.4443354l0.187089 0.35079h0.724968" fill="none" stroke="#f00" stroke-width=".5"/>
  <path d="m2.9076865 289.10791v8h7.9999995" fill="none" marker-end="url(#TriangleOutM)" marker-mid="url(#SquareS)" marker-start="url(#TriangleInM)" stroke="#00f" stroke-linejoin="round" stroke-width=".4"/>
 </g>
</svg>
