<svg width="10mm" height="10mm" version="1.1" viewBox="0 0 10 10" xmlns="http://www.w3.org/2000/svg">
 <title>TDBitmap</title>
 <g transform="translate(-1.9076865,-288.10791)">
  <rect x="1.9076865" y="288.10791" width="10" height="10"/>
  <text x="0.8504464" y="292.29892" fill="#000000" font-family="sans-serif" font-size="10.58333302px" letter-spacing="0px" stroke-width=".26458332" word-spacing="0px" style="line-height:1.25" xml:space="preserve"><tspan x="0.8504464" y="301.66269" stroke-width=".26458332"/></text>
  <rect x="2.1722698" y="293.35791" width="1.35" height="4.5" rx=".67500001" ry=".67500001" fill="#f00"/>
  <rect x="5.3222699" y="293.35791" width="1.35" height="4.5" rx=".67500001" ry=".67500001" fill="#00f"/>
  <rect x="3.7472699" y="293.35791" width="1.35" height="4.5" rx=".67500001" ry=".67500001" fill="#0f0"/>
  <rect x="2.1722698" y="288.35791" width="1.35" height="4.5" rx=".67500001" ry=".67500001" fill="#f00"/>
  <rect x="5.3222699" y="288.35791" width="1.35" height="4.5" rx=".67500001" ry=".67500001" fill="#00f"/>
  <rect x="3.7472699" y="288.35791" width="1.35" height="4.5" rx=".67500001" ry=".67500001" fill="#0f0"/>
  <rect x="7.1431031" y="290.85791" width="1.35" height="4.5" rx=".67500001" ry=".67500001" fill="#f00"/>
  <rect x="10.293103" y="290.85791" width="1.35" height="4.5" rx=".67500001" ry=".67500001" fill="#00f"/>
  <rect x="8.7181034" y="290.85791" width="1.35" height="4.5" rx=".67500001" ry=".67500001" fill="#0f0"/>
  <path d="m7.8179201 295.85782c-0.3739502 0-0.6748944 0.30095-0.6748944 0.6749v1.5751h1.3503052v-1.5751c0-0.37395-0.3014609-0.6749-0.6754108-0.6749z" fill="#f00"/>
  <path d="m10.968115 295.85782c-0.37395 0-0.674894 0.30095-0.674894 0.6749v1.5751h1.349788v-1.5751c0-0.37395-0.300944-0.6749-0.674894-0.6749z" fill="#00f"/>
  <path d="m9.3930177 295.85782c-0.3739502 0-0.6748944 0.30095-0.6748944 0.6749v1.5751h1.3497887v-1.5751c0-0.37395-0.3009444-0.6749-0.6748943-0.6749z" fill="#0f0"/>
  <path d="m7.8179201 290.35791c-0.3739502 0-0.6748944-0.30095-0.6748944-0.6749v-1.5751h1.3503052v1.5751c0 0.37395-0.3014609 0.6749-0.6754108 0.6749z" fill="#f00"/>
  <path d="m10.968115 290.35791c-0.37395 0-0.674894-0.30095-0.674894-0.6749v-1.5751h1.349788v1.5751c0 0.37395-0.300944 0.6749-0.674894 0.6749z" fill="#00f"/>
  <path d="m9.3930177 290.35791c-0.3739502 0-0.6748944-0.30095-0.6748944-0.6749v-1.5751h1.3497887v1.5751c0 0.37395-0.3009444 0.6749-0.6748943 0.6749z" fill="#0f0"/>
 </g>
</svg>
