<svg width="10mm" height="10mm" version="1.1" viewBox="0 0 10 10" xmlns="http://www.w3.org/2000/svg">
 <title>TDGraph_Volume</title>
 <defs>
  <marker id="SquareS" overflow="visible" orient="auto">
   <path transform="scale(.2)" d="m-5-5v10h10v-10h-10z" fill="#00f" fill-rule="evenodd" stroke="#00f" stroke-width="1pt"/>
  </marker>
  <marker id="TriangleOutM" overflow="visible" orient="auto">
   <path transform="scale(.4)" d="m5.77 0-8.65 5v-10l8.65 5z" fill="#00f" fill-rule="evenodd" stroke="#00f" stroke-width="1pt"/>
  </marker>
  <marker id="TriangleInM" overflow="visible" orient="auto">
   <path transform="scale(-.4)" d="m5.77 0-8.65 5v-10l8.65 5z" fill="#00f" fill-rule="evenodd" stroke="#00f" stroke-width="1pt"/>
  </marker>
  <filter id="filter1915" color-interpolation-filters="sRGB">
   <feColorMatrix result="color1" type="hueRotate" values="345"/>
   <feColorMatrix result="fbSourceGraphic" type="saturate" values="1"/>
   <feColorMatrix in="fbSourceGraphic" result="fbSourceGraphicAlpha" values="0 0 0 -1 0 0 0 0 -1 0 0 0 0 -1 0 0 0 0 1 0"/>
   <feColorMatrix in="fbSourceGraphic" result="color1" type="hueRotate" values="345"/>
   <feColorMatrix result="fbSourceGraphic" type="saturate" values="1"/>
   <feColorMatrix in="fbSourceGraphic" result="fbSourceGraphicAlpha" values="0 0 0 -1 0 0 0 0 -1 0 0 0 0 -1 0 0 0 0 1 0"/>
   <feColorMatrix in="fbSourceGraphic" result="fbSourceGraphic" values="1 0 0 -0.05 -0 0 1 0 -0.05 -0 0 0 1 -0.05 -0 0 0 0 1 0"/>
   <feColorMatrix in="fbSourceGraphic" result="fbSourceGraphicAlpha" values="0 0 0 -1 0 0 0 0 -1 0 0 0 0 -1 0 0 0 0 1 0"/>
   <feColorMatrix in="fbSourceGraphic" values="1 0 0 -0.05 -0 0 1 0 -0.05 -0 0 0 1 -0.05 -0 0 0 0 1 0"/>
  </filter>
  <filter id="filter1921" color-interpolation-filters="sRGB">
   <feColorMatrix result="color1" type="hueRotate" values="345"/>
   <feColorMatrix result="fbSourceGraphic" type="saturate" values="1"/>
   <feColorMatrix in="fbSourceGraphic" result="fbSourceGraphicAlpha" values="0 0 0 -1 0 0 0 0 -1 0 0 0 0 -1 0 0 0 0 1 0"/>
   <feColorMatrix in="fbSourceGraphic" values="1 0 0 -0.05 -0 0 1 0 -0.05 -0 0 0 1 -0.05 -0 0 0 0 1 0"/>
  </filter>
  <clipPath id="clipPath1480-4-2">
   <path d="m2.4079144 288.60814v7.00009h5.999117v-1.48932h3.0008506v-5.51077h-3.0008506z" fill="#fff"/>
  </clipPath>
 </defs>
 <rect x="-2.8060914e-8" y="1.5625e-7" width="10" height="10" fill="#fff"/>
 <text x="-1.0572401" y="4.1910095" fill="#000000" font-family="sans-serif" font-size="10.58333302px" letter-spacing="0px" stroke-width=".26458332" word-spacing="0px" style="line-height:1.25" xml:space="preserve"><tspan x="-1.0572401" y="13.554779" stroke-width=".26458332"/></text>
 <path d="m1 1v8h7.9999995" fill="none" marker-end="url(#TriangleOutM)" marker-mid="url(#SquareS)" marker-start="url(#TriangleInM)" stroke="#00f" stroke-linejoin="round" stroke-width=".40000001"/>
 <path d="m9.4495345 7.55537-0.04981-8e-3 -0.04981-0.18577-0.04985 0.0389-0.04981-0.14494-0.04977 0.0269-0.04981-0.0691-0.04981 0.0226-0.04977-0.0342-0.04977-0.0771-0.04977-0.0229-0.04977-0.15648-0.04977 0.0512-0.04972 9e-3 -0.04977-0.0207-0.04972-0.12735-0.04972-0.10193-0.04972-0.0108-0.04972-0.0845-0.04968 0.0455-0.04972-0.10554-0.04968 0.0147-0.04968 1.5e-4 -0.04968-0.072-0.04968-0.10034-0.04968-0.0138-0.04964 0.011-0.04968-0.0625-0.049639-0.0623-0.04964-0.0229-0.04964-0.0118-0.0496 0.0894-0.04964-0.0928-0.0496-0.0815-0.04964-0.0793-0.0496-2e-3 -0.0496-0.0701-0.04955-3e-3 -0.0496-9e-3 -0.04955 3e-3 -0.0496-0.0495-0.04955-0.0645-0.04956-0.0621-0.04951 2e-3 -0.04955-0.0256-0.04956-0.0382-0.04951-7e-3 -0.04951-0.0139-0.04951-0.0425-0.04951 0.0236-0.04951 0.12631-0.04947 0.01-0.04951-0.0663-0.04947-0.0378-0.04947-0.0426-0.04947 0.0103-0.04943-0.0485-0.04947 0.0254-0.04943 0.11812-0.04947 0.0172-0.04943 0.0399-0.04943 0.0383-0.04943 0.0399-0.04938 0.0341-0.04943-0.0155-0.04938 0.0537-0.04939 6e-3 -0.04939 0.0779-0.04938 0.0516-0.04939 0.0657-0.04934-0.0375-0.04939 0.10407-0.04934 7e-3 -0.04934 0.0111-0.04934 0.0507-0.0493 0.0774-0.04934 0.0325-0.0493 2e-3 -0.04934 0.0124-0.0493 0.0241-0.0493 0.0587-0.0493 0.0584-0.04926-0.0319-0.0493 0.11905-0.04926 0.0713-0.04926-0.0219-0.04926 8e-3 -0.04926 0.0139-0.04926 0.10461-0.04922 0.0154-0.04922-0.01-0.04926 8e-3 -0.04922 5e-3 -0.04922 0.0174-0.04917 0.0453-0.04922-0.0341-0.04917 0.10888-0.04922-0.10017-0.04917 0.0786-0.04917-9e-3 -0.04913-0.12588-0.04917 2e-3 -0.04917 0.16846-0.04913-0.11257-0.04913 0.0377-0.04913-0.0744-0.04913-7e-3 -0.04913-0.0889-0.04909-0.0928-0.04913-0.0793-0.04909-0.0368-0.04909-0.16349-0.04909-0.21919-0.04905-0.14949-0.04909-1e-3 -0.04905 0.0837-0.04909-9.1e-4 -0.04905-0.13517-0.04905-0.10772-0.04905-0.32449-0.049-0.44053-0.04905-0.58273-0.049-0.77843-0.049-0.68212-0.04901-0.33066-0.049 0.29194-0.049 0.81408-0.04896 0.98222-0.049 0.78591-0.04896 0.64186-0.04896 0.30471-0.04896 0.25068-0.04896 0.135-0.04892 0.16734-0.04896 0.16262-0.04892 0.0119-0.04892 0.23522-0.04892-0.0305-0.04892 0.0485-0.04892 0.0315-0.04888 9e-3 -0.04888 0.064-0.04892 0.0546-0.04888 0.0876-0.04888-0.0882-0.04884-0.0663-0.04888 0.12001-0.04883 0.0109-0.04884-0.0128-0.04888 0.0344-0.04879 0.0693-0.04884 0.0319-0.04884-0.0184-0.04879 0.0624-0.04883-0.0301-0.04879-0.0452-0.04879-0.0139-0.04879-0.0457-0.04875 0.0554-0.04879-3e-3 -0.04875 0.0661-0.04875 9e-3 -0.04875-0.12339-0.04875 0.12204-0.04875-0.0461-0.04875 0.0118h-0.068485" fill="none" stroke="#f00" stroke-linecap="square" stroke-linejoin="round" stroke-width=".5"/>
 <g transform="matrix(.5 0 0 .5 5.0000005 1.5624999e-7)">
  <rect x="-5.5511151e-17" width="10" height="10" fill="#fff"/>
  <g transform="matrix(.7 0 0 .7 -1.3353805 -201.67554)" filter="url(#filter1915)">
   <rect x="1.9076865" y="288.10791" width="10" height="10"/>
   <text x="0.8504464" y="292.29892" fill="#000000" font-family="sans-serif" font-size="10.58333302px" letter-spacing="0px" stroke-width=".26458332" word-spacing="0px" style="line-height:1.25" xml:space="preserve"><tspan x="0.8504464" y="301.66269" stroke-width=".26458332"/></text>
   <rect x="2.4076865" y="288.60791" width="9" height="9" fill="#f00"/>
   <g shape-rendering="auto">
    <path transform="matrix(.26458333 0 0 .26458333 1.9076865 288.10791)" d="m35.90625 15.892578-20.011719 20.011719 2e-3 2e-3h5.341797l14.667922-14.668016z" color="#000000" color-rendering="auto" dominant-baseline="auto" fill="#0f0" image-rendering="auto" solid-color="#000000" style="font-feature-settings:normal;font-variant-alternates:normal;font-variant-caps:normal;font-variant-ligatures:normal;font-variant-numeric:normal;font-variant-position:normal;isolation:auto;mix-blend-mode:normal;shape-padding:0;text-decoration-color:#000000;text-decoration-line:none;text-decoration-style:solid;text-indent:0;text-orientation:mixed;text-transform:none;white-space:normal"/>
    <path transform="matrix(.26458333 0 0 .26458333 1.9076865 288.10791)" d="m33.234375 1.890625-31.34375 31.341797v2.673828h2.671875l31.34375-31.34375v-2.671875z" color="#000000" color-rendering="auto" dominant-baseline="auto" fill="#0f0" image-rendering="auto" solid-color="#000000" style="font-feature-settings:normal;font-variant-alternates:normal;font-variant-caps:normal;font-variant-ligatures:normal;font-variant-numeric:normal;font-variant-position:normal;isolation:auto;mix-blend-mode:normal;shape-padding:0;text-decoration-color:#000000;text-decoration-line:none;text-decoration-style:solid;text-indent:0;text-orientation:mixed;text-transform:none;white-space:normal"/>
    <g fill="#ff0">
     <path transform="matrix(.26458333 0 0 .26458333 1.9076865 288.10791)" d="m27.607422 1.890625-25.716797 25.716797v2.669922l0.00195 2e-3 0.6640656-0.66411 27.0546874-27.0546871 0.669922-0.6699219z" color="#000000" color-rendering="auto" dominant-baseline="auto" image-rendering="auto" solid-color="#000000" style="font-feature-settings:normal;font-variant-alternates:normal;font-variant-caps:normal;font-variant-ligatures:normal;font-variant-numeric:normal;font-variant-position:normal;isolation:auto;mix-blend-mode:normal;shape-padding:0;text-decoration-color:#000000;text-decoration-line:none;text-decoration-style:solid;text-indent:0;text-orientation:mixed;text-transform:none;white-space:normal"/>
     <path transform="matrix(.26458333 0 0 .26458333 1.9076865 288.10791)" d="m35.90625 11.876953-1.333984 1.333985-21.363282 21.357421-1.33789 1.335938 2e-3 2e-3h5.341797l18.691359-18.683641z" color="#000000" color-rendering="auto" dominant-baseline="auto" image-rendering="auto" solid-color="#000000" style="font-feature-settings:normal;font-variant-alternates:normal;font-variant-caps:normal;font-variant-ligatures:normal;font-variant-numeric:normal;font-variant-position:normal;isolation:auto;mix-blend-mode:normal;shape-padding:0;text-decoration-color:#000000;text-decoration-line:none;text-decoration-style:solid;text-indent:0;text-orientation:mixed;text-transform:none;white-space:normal"/>
     <path transform="matrix(.26458333 0 0 .26458333 1.9076865 288.10791)" d="m35.90625 23.3125-1.333984 1.333984-9.929688 9.921875-1.335937 1.335938 2e-3 2e-3h5.341797l7.255859-7.251953z" color="#000000" color-rendering="auto" dominant-baseline="auto" image-rendering="auto" solid-color="#000000" style="font-feature-settings:normal;font-variant-alternates:normal;font-variant-caps:normal;font-variant-ligatures:normal;font-variant-numeric:normal;font-variant-position:normal;isolation:auto;mix-blend-mode:normal;shape-padding:0;text-decoration-color:#000000;text-decoration-line:none;text-decoration-style:solid;text-indent:0;text-orientation:mixed;text-transform:none;white-space:normal"/>
    </g>
    <path transform="matrix(.26458333 0 0 .26458333 1.9076865 288.10791)" d="m35.90625 9.5292969-0.669922 0.6640621-25.039062 25.046875-0.6718754 0.664063 0.00195 2e-3h2.6757844l23.703125-23.710985z" color="#000000" color-rendering="auto" dominant-baseline="auto" fill="#0f0" image-rendering="auto" solid-color="#000000" style="font-feature-settings:normal;font-variant-alternates:normal;font-variant-caps:normal;font-variant-ligatures:normal;font-variant-numeric:normal;font-variant-position:normal;isolation:auto;mix-blend-mode:normal;shape-padding:0;text-decoration-color:#000000;text-decoration-line:none;text-decoration-style:solid;text-indent:0;text-orientation:mixed;text-transform:none;white-space:normal"/>
    <path transform="matrix(.26458333 0 0 .26458333 1.9076865 288.10791)" d="m3.1660156 1.890625-1.2753906 1.2753906v10.6933594l0.00195 2e-3 2.671875-2.679687 6.621094-6.6210941 2.669922-2.6699219z" color="#000000" color-rendering="auto" dominant-baseline="auto" fill="#ff0" image-rendering="auto" solid-color="#000000" style="font-feature-settings:normal;font-variant-alternates:normal;font-variant-caps:normal;font-variant-ligatures:normal;font-variant-numeric:normal;font-variant-position:normal;isolation:auto;mix-blend-mode:normal;shape-padding:0;text-decoration-color:#000000;text-decoration-line:none;text-decoration-style:solid;text-indent:0;text-orientation:mixed;text-transform:none;white-space:normal"/>
    <path transform="matrix(.26458333 0 0 .26458333 1.9076865 288.10791)" d="m12.298828 1.890625-10.408203 10.40625v5.349609l0.00195 2e-3 1.3359375-1.34375 13.0800815-13.0801246 1.333984-1.3339844z" color="#000000" color-rendering="auto" dominant-baseline="auto" fill="#0f0" image-rendering="auto" solid-color="#000000" style="font-feature-settings:normal;font-variant-alternates:normal;font-variant-caps:normal;font-variant-ligatures:normal;font-variant-numeric:normal;font-variant-position:normal;isolation:auto;mix-blend-mode:normal;shape-padding:0;text-decoration-color:#000000;text-decoration-line:none;text-decoration-style:solid;text-indent:0;text-orientation:mixed;text-transform:none;white-space:normal"/>
    <path transform="matrix(.26458333 0 0 .26458333 1.9076865 288.10791)" d="m16.890625 1.890625-15 15.003906v5.34375l0.00195 2e-3 1.3359406-1.335984 17.6718754-17.6796876 1.333984-1.3339844z" color="#000000" color-rendering="auto" dominant-baseline="auto" fill="#ff0" image-rendering="auto" solid-color="#000000" style="font-feature-settings:normal;font-variant-alternates:normal;font-variant-caps:normal;font-variant-ligatures:normal;font-variant-numeric:normal;font-variant-position:normal;isolation:auto;mix-blend-mode:normal;shape-padding:0;text-decoration-color:#000000;text-decoration-line:none;text-decoration-style:solid;text-indent:0;text-orientation:mixed;text-transform:none;white-space:normal"/>
   </g>
  </g>
  <g transform="matrix(.7 0 0 .7 .16461972 -200.17554)" filter="url(#filter1921)">
   <rect x="1.9076865" y="288.10791" width="10" height="10"/>
   <text x="0.8504464" y="292.29892" fill="#000000" font-family="sans-serif" font-size="10.58333302px" letter-spacing="0px" stroke-width=".26458332" word-spacing="0px" style="line-height:1.25" xml:space="preserve"><tspan x="0.8504464" y="301.66269" stroke-width=".26458332"/></text>
   <rect x="2.4076865" y="288.60791" width="9" height="9" fill="#f00"/>
   <g shape-rendering="auto">
    <path transform="matrix(.26458333 0 0 .26458333 1.9076865 288.10791)" d="m35.90625 15.892578-20.011719 20.011719 2e-3 2e-3h5.341797l14.667922-14.668016z" color="#000000" color-rendering="auto" dominant-baseline="auto" fill="#0f0" image-rendering="auto" solid-color="#000000" style="font-feature-settings:normal;font-variant-alternates:normal;font-variant-caps:normal;font-variant-ligatures:normal;font-variant-numeric:normal;font-variant-position:normal;isolation:auto;mix-blend-mode:normal;shape-padding:0;text-decoration-color:#000000;text-decoration-line:none;text-decoration-style:solid;text-indent:0;text-orientation:mixed;text-transform:none;white-space:normal"/>
    <path transform="matrix(.26458333 0 0 .26458333 1.9076865 288.10791)" d="m33.234375 1.890625-31.34375 31.341797v2.673828h2.671875l31.34375-31.34375v-2.671875z" color="#000000" color-rendering="auto" dominant-baseline="auto" fill="#0f0" image-rendering="auto" solid-color="#000000" style="font-feature-settings:normal;font-variant-alternates:normal;font-variant-caps:normal;font-variant-ligatures:normal;font-variant-numeric:normal;font-variant-position:normal;isolation:auto;mix-blend-mode:normal;shape-padding:0;text-decoration-color:#000000;text-decoration-line:none;text-decoration-style:solid;text-indent:0;text-orientation:mixed;text-transform:none;white-space:normal"/>
    <g fill="#ff0">
     <path transform="matrix(.26458333 0 0 .26458333 1.9076865 288.10791)" d="m27.607422 1.890625-25.716797 25.716797v2.669922l0.00195 2e-3 0.6640656-0.66411 27.0546874-27.0546871 0.669922-0.6699219z" color="#000000" color-rendering="auto" dominant-baseline="auto" image-rendering="auto" solid-color="#000000" style="font-feature-settings:normal;font-variant-alternates:normal;font-variant-caps:normal;font-variant-ligatures:normal;font-variant-numeric:normal;font-variant-position:normal;isolation:auto;mix-blend-mode:normal;shape-padding:0;text-decoration-color:#000000;text-decoration-line:none;text-decoration-style:solid;text-indent:0;text-orientation:mixed;text-transform:none;white-space:normal"/>
     <path transform="matrix(.26458333 0 0 .26458333 1.9076865 288.10791)" d="m35.90625 11.876953-1.333984 1.333985-21.363282 21.357421-1.33789 1.335938 2e-3 2e-3h5.341797l18.691359-18.683641z" color="#000000" color-rendering="auto" dominant-baseline="auto" image-rendering="auto" solid-color="#000000" style="font-feature-settings:normal;font-variant-alternates:normal;font-variant-caps:normal;font-variant-ligatures:normal;font-variant-numeric:normal;font-variant-position:normal;isolation:auto;mix-blend-mode:normal;shape-padding:0;text-decoration-color:#000000;text-decoration-line:none;text-decoration-style:solid;text-indent:0;text-orientation:mixed;text-transform:none;white-space:normal"/>
     <path transform="matrix(.26458333 0 0 .26458333 1.9076865 288.10791)" d="m35.90625 23.3125-1.333984 1.333984-9.929688 9.921875-1.335937 1.335938 2e-3 2e-3h5.341797l7.255859-7.251953z" color="#000000" color-rendering="auto" dominant-baseline="auto" image-rendering="auto" solid-color="#000000" style="font-feature-settings:normal;font-variant-alternates:normal;font-variant-caps:normal;font-variant-ligatures:normal;font-variant-numeric:normal;font-variant-position:normal;isolation:auto;mix-blend-mode:normal;shape-padding:0;text-decoration-color:#000000;text-decoration-line:none;text-decoration-style:solid;text-indent:0;text-orientation:mixed;text-transform:none;white-space:normal"/>
    </g>
    <path transform="matrix(.26458333 0 0 .26458333 1.9076865 288.10791)" d="m35.90625 9.5292969-0.669922 0.6640621-25.039062 25.046875-0.6718754 0.664063 0.00195 2e-3h2.6757844l23.703125-23.710985z" color="#000000" color-rendering="auto" dominant-baseline="auto" fill="#0f0" image-rendering="auto" solid-color="#000000" style="font-feature-settings:normal;font-variant-alternates:normal;font-variant-caps:normal;font-variant-ligatures:normal;font-variant-numeric:normal;font-variant-position:normal;isolation:auto;mix-blend-mode:normal;shape-padding:0;text-decoration-color:#000000;text-decoration-line:none;text-decoration-style:solid;text-indent:0;text-orientation:mixed;text-transform:none;white-space:normal"/>
    <path transform="matrix(.26458333 0 0 .26458333 1.9076865 288.10791)" d="m3.1660156 1.890625-1.2753906 1.2753906v10.6933594l0.00195 2e-3 2.671875-2.679687 6.621094-6.6210941 2.669922-2.6699219z" color="#000000" color-rendering="auto" dominant-baseline="auto" fill="#ff0" image-rendering="auto" solid-color="#000000" style="font-feature-settings:normal;font-variant-alternates:normal;font-variant-caps:normal;font-variant-ligatures:normal;font-variant-numeric:normal;font-variant-position:normal;isolation:auto;mix-blend-mode:normal;shape-padding:0;text-decoration-color:#000000;text-decoration-line:none;text-decoration-style:solid;text-indent:0;text-orientation:mixed;text-transform:none;white-space:normal"/>
    <path transform="matrix(.26458333 0 0 .26458333 1.9076865 288.10791)" d="m12.298828 1.890625-10.408203 10.40625v5.349609l0.00195 2e-3 1.3359375-1.34375 13.0800815-13.0801246 1.333984-1.3339844z" color="#000000" color-rendering="auto" dominant-baseline="auto" fill="#0f0" image-rendering="auto" solid-color="#000000" style="font-feature-settings:normal;font-variant-alternates:normal;font-variant-caps:normal;font-variant-ligatures:normal;font-variant-numeric:normal;font-variant-position:normal;isolation:auto;mix-blend-mode:normal;shape-padding:0;text-decoration-color:#000000;text-decoration-line:none;text-decoration-style:solid;text-indent:0;text-orientation:mixed;text-transform:none;white-space:normal"/>
    <path transform="matrix(.26458333 0 0 .26458333 1.9076865 288.10791)" d="m16.890625 1.890625-15 15.003906v5.34375l0.00195 2e-3 1.3359406-1.335984 17.6718754-17.6796876 1.333984-1.3339844z" color="#000000" color-rendering="auto" dominant-baseline="auto" fill="#ff0" image-rendering="auto" solid-color="#000000" style="font-feature-settings:normal;font-variant-alternates:normal;font-variant-caps:normal;font-variant-ligatures:normal;font-variant-numeric:normal;font-variant-position:normal;isolation:auto;mix-blend-mode:normal;shape-padding:0;text-decoration-color:#000000;text-decoration-line:none;text-decoration-style:solid;text-indent:0;text-orientation:mixed;text-transform:none;white-space:normal"/>
   </g>
  </g>
  <g transform="matrix(.7 0 0 .7 1.6646194 -198.67554)">
   <rect x="1.9076865" y="288.10791" width="10" height="10"/>
   <text x="0.8504464" y="292.29892" fill="#000000" font-family="sans-serif" font-size="10.58333302px" letter-spacing="0px" stroke-width=".26458332" word-spacing="0px" style="line-height:1.25" xml:space="preserve"><tspan x="0.8504464" y="301.66269" stroke-width=".26458332"/></text>
   <g clip-path="url(#clipPath1480-4-2)">
    <rect x="2.4076865" y="288.60791" width="9" height="9" fill="#f00"/>
    <g shape-rendering="auto">
     <path transform="matrix(.26458333 0 0 .26458333 1.9076865 288.10791)" d="m35.90625 15.892578-20.011719 20.011719 2e-3 2e-3h5.341797l14.667922-14.668016z" color="#000000" color-rendering="auto" dominant-baseline="auto" fill="#0f0" image-rendering="auto" solid-color="#000000" style="font-feature-settings:normal;font-variant-alternates:normal;font-variant-caps:normal;font-variant-ligatures:normal;font-variant-numeric:normal;font-variant-position:normal;isolation:auto;mix-blend-mode:normal;shape-padding:0;text-decoration-color:#000000;text-decoration-line:none;text-decoration-style:solid;text-indent:0;text-orientation:mixed;text-transform:none;white-space:normal"/>
     <path transform="matrix(.26458333 0 0 .26458333 1.9076865 288.10791)" d="m33.234375 1.890625-31.34375 31.341797v2.673828h2.671875l31.34375-31.34375v-2.671875z" color="#000000" color-rendering="auto" dominant-baseline="auto" fill="#0f0" image-rendering="auto" solid-color="#000000" style="font-feature-settings:normal;font-variant-alternates:normal;font-variant-caps:normal;font-variant-ligatures:normal;font-variant-numeric:normal;font-variant-position:normal;isolation:auto;mix-blend-mode:normal;shape-padding:0;text-decoration-color:#000000;text-decoration-line:none;text-decoration-style:solid;text-indent:0;text-orientation:mixed;text-transform:none;white-space:normal"/>
     <g fill="#ff0">
      <path transform="matrix(.26458333 0 0 .26458333 1.9076865 288.10791)" d="m27.607422 1.890625-25.716797 25.716797v2.669922l0.00195 2e-3 0.6640656-0.66411 27.0546874-27.0546871 0.669922-0.6699219z" color="#000000" color-rendering="auto" dominant-baseline="auto" image-rendering="auto" solid-color="#000000" style="font-feature-settings:normal;font-variant-alternates:normal;font-variant-caps:normal;font-variant-ligatures:normal;font-variant-numeric:normal;font-variant-position:normal;isolation:auto;mix-blend-mode:normal;shape-padding:0;text-decoration-color:#000000;text-decoration-line:none;text-decoration-style:solid;text-indent:0;text-orientation:mixed;text-transform:none;white-space:normal"/>
      <path transform="matrix(.26458333 0 0 .26458333 1.9076865 288.10791)" d="m35.90625 11.876953-1.333984 1.333985-21.363282 21.357421-1.33789 1.335938 2e-3 2e-3h5.341797l18.691359-18.683641z" color="#000000" color-rendering="auto" dominant-baseline="auto" image-rendering="auto" solid-color="#000000" style="font-feature-settings:normal;font-variant-alternates:normal;font-variant-caps:normal;font-variant-ligatures:normal;font-variant-numeric:normal;font-variant-position:normal;isolation:auto;mix-blend-mode:normal;shape-padding:0;text-decoration-color:#000000;text-decoration-line:none;text-decoration-style:solid;text-indent:0;text-orientation:mixed;text-transform:none;white-space:normal"/>
      <path transform="matrix(.26458333 0 0 .26458333 1.9076865 288.10791)" d="m35.90625 23.3125-1.333984 1.333984-9.929688 9.921875-1.335937 1.335938 2e-3 2e-3h5.341797l7.255859-7.251953z" color="#000000" color-rendering="auto" dominant-baseline="auto" image-rendering="auto" solid-color="#000000" style="font-feature-settings:normal;font-variant-alternates:normal;font-variant-caps:normal;font-variant-ligatures:normal;font-variant-numeric:normal;font-variant-position:normal;isolation:auto;mix-blend-mode:normal;shape-padding:0;text-decoration-color:#000000;text-decoration-line:none;text-decoration-style:solid;text-indent:0;text-orientation:mixed;text-transform:none;white-space:normal"/>
     </g>
     <path transform="matrix(.26458333 0 0 .26458333 1.9076865 288.10791)" d="m35.90625 9.5292969-0.669922 0.6640621-25.039062 25.046875-0.6718754 0.664063 0.00195 2e-3h2.6757844l23.703125-23.710985z" color="#000000" color-rendering="auto" dominant-baseline="auto" fill="#0f0" image-rendering="auto" solid-color="#000000" style="font-feature-settings:normal;font-variant-alternates:normal;font-variant-caps:normal;font-variant-ligatures:normal;font-variant-numeric:normal;font-variant-position:normal;isolation:auto;mix-blend-mode:normal;shape-padding:0;text-decoration-color:#000000;text-decoration-line:none;text-decoration-style:solid;text-indent:0;text-orientation:mixed;text-transform:none;white-space:normal"/>
     <path transform="matrix(.26458333 0 0 .26458333 1.9076865 288.10791)" d="m3.1660156 1.890625-1.2753906 1.2753906v10.6933594l0.00195 2e-3 2.671875-2.679687 6.621094-6.6210941 2.669922-2.6699219z" color="#000000" color-rendering="auto" dominant-baseline="auto" fill="#ff0" image-rendering="auto" solid-color="#000000" style="font-feature-settings:normal;font-variant-alternates:normal;font-variant-caps:normal;font-variant-ligatures:normal;font-variant-numeric:normal;font-variant-position:normal;isolation:auto;mix-blend-mode:normal;shape-padding:0;text-decoration-color:#000000;text-decoration-line:none;text-decoration-style:solid;text-indent:0;text-orientation:mixed;text-transform:none;white-space:normal"/>
     <path transform="matrix(.26458333 0 0 .26458333 1.9076865 288.10791)" d="m12.298828 1.890625-10.408203 10.40625v5.349609l0.00195 2e-3 1.3359375-1.34375 13.0800815-13.0801246 1.333984-1.3339844z" color="#000000" color-rendering="auto" dominant-baseline="auto" fill="#0f0" image-rendering="auto" solid-color="#000000" style="font-feature-settings:normal;font-variant-alternates:normal;font-variant-caps:normal;font-variant-ligatures:normal;font-variant-numeric:normal;font-variant-position:normal;isolation:auto;mix-blend-mode:normal;shape-padding:0;text-decoration-color:#000000;text-decoration-line:none;text-decoration-style:solid;text-indent:0;text-orientation:mixed;text-transform:none;white-space:normal"/>
     <path transform="matrix(.26458333 0 0 .26458333 1.9076865 288.10791)" d="m16.890625 1.890625-15 15.003906v5.34375l0.00195 2e-3 1.3359406-1.335984 17.6718754-17.6796876 1.333984-1.3339844z" color="#000000" color-rendering="auto" dominant-baseline="auto" fill="#ff0" image-rendering="auto" solid-color="#000000" style="font-feature-settings:normal;font-variant-alternates:normal;font-variant-caps:normal;font-variant-ligatures:normal;font-variant-numeric:normal;font-variant-position:normal;isolation:auto;mix-blend-mode:normal;shape-padding:0;text-decoration-color:#000000;text-decoration-line:none;text-decoration-style:solid;text-indent:0;text-orientation:mixed;text-transform:none;white-space:normal"/>
    </g>
   </g>
   <path d="m9.8958292 294.11891v1.48931h-7.4873981v1.99988h8.9994509v-3.48919z" fill="#fff"/>
   <rect x="8.4070311" y="294.11932" width="1.488798" height="1.488798" fill="#0ff" stroke="#000" stroke-linecap="square" stroke-linejoin="round" stroke-width=".5"/>
  </g>
 </g>
</svg>
