<svg width="10mm" height="10mm" version="1.1" viewBox="0 0 10 10" xmlns="http://www.w3.org/2000/svg">
 <title>TDImage_Volume</title>
 <defs>
  <clipPath id="clipPath1480-4">
   <path d="m2.4079144 288.60814v7.00009h5.999117v-1.48932h3.0008506v-5.51077h-3.0008506z" fill="#fff"/>
  </clipPath>
 </defs>
 <text x="-1.4572399" y="4.1910095" fill="#000000" font-family="sans-serif" font-size="10.58333302px" letter-spacing="0px" stroke-width=".26458332" word-spacing="0px" style="line-height:1.25" xml:space="preserve"><tspan x="-1.4572399" y="13.554779" stroke-width=".26458332"/></text>
 <rect x="-5.5511151e-17" width="10" height="10" fill="#fff"/>
 <text x="2.2599318" y="-4.6496363" fill="#000000" font-family="sans-serif" font-size="7.4083333px" letter-spacing="0px" stroke-width=".18520832" word-spacing="0px" style="line-height:1.25" xml:space="preserve"><tspan x="2.2599318" y="1.9050025" stroke-width=".18520832"/></text>
 <g transform="translate(0,10.583333)">
  <rect y="-10.583336" width="7" height="7" stroke-width=".69999999"/>
  <g>
   <rect x=".34999993" y="-10.233332" width="6.3000002" height="6.3000002" fill="#df004f" stroke-width=".69999999"/>
   <g shape-rendering="auto">
    <path d="m6.6501365-7.6398955-3.706337 3.7063375 3.704e-4 3.7e-4h0.9893453l2.7166213-2.7166385z" color="#000000" color-rendering="auto" dominant-baseline="auto" fill="#4fcc00" image-rendering="auto" solid-color="#000000" stroke-width=".18520834" style="font-feature-settings:normal;font-variant-alternates:normal;font-variant-caps:normal;font-variant-ligatures:normal;font-variant-numeric:normal;font-variant-position:normal;isolation:auto;mix-blend-mode:normal;shape-padding:0;text-decoration-color:#000000;text-decoration-line:none;text-decoration-style:solid;text-indent:0;text-orientation:mixed;text-transform:none;white-space:normal"/>
    <path d="m6.155283-10.233174-5.80512355 5.804762v0.495216h0.49485351l5.80512354-5.8051245v-0.4948535z" color="#000000" color-rendering="auto" dominant-baseline="auto" fill="#4fcc00" image-rendering="auto" solid-color="#000000" stroke-width=".18520834" style="font-feature-settings:normal;font-variant-alternates:normal;font-variant-caps:normal;font-variant-ligatures:normal;font-variant-numeric:normal;font-variant-position:normal;isolation:auto;mix-blend-mode:normal;shape-padding:0;text-decoration-color:#000000;text-decoration-line:none;text-decoration-style:solid;text-indent:0;text-orientation:mixed;text-transform:none;white-space:normal"/>
    <g transform="matrix(.7 0 0 .7 -1.3353806 -212.25887)" fill="#e5bf03">
     <path transform="matrix(.26458333 0 0 .26458333 1.9076865 288.10791)" d="m27.607422 1.890625-25.716797 25.716797v2.669922l0.00195 2e-3 0.6640656-0.66411 27.0546874-27.0546871 0.669922-0.6699219z" color="#000000" color-rendering="auto" dominant-baseline="auto" image-rendering="auto" solid-color="#000000" style="font-feature-settings:normal;font-variant-alternates:normal;font-variant-caps:normal;font-variant-ligatures:normal;font-variant-numeric:normal;font-variant-position:normal;isolation:auto;mix-blend-mode:normal;shape-padding:0;text-decoration-color:#000000;text-decoration-line:none;text-decoration-style:solid;text-indent:0;text-orientation:mixed;text-transform:none;white-space:normal"/>
     <path transform="matrix(.26458333 0 0 .26458333 1.9076865 288.10791)" d="m35.90625 11.876953-1.333984 1.333985-21.363282 21.357421-1.33789 1.335938 2e-3 2e-3h5.341797l18.691359-18.683641z" color="#000000" color-rendering="auto" dominant-baseline="auto" image-rendering="auto" solid-color="#000000" style="font-feature-settings:normal;font-variant-alternates:normal;font-variant-caps:normal;font-variant-ligatures:normal;font-variant-numeric:normal;font-variant-position:normal;isolation:auto;mix-blend-mode:normal;shape-padding:0;text-decoration-color:#000000;text-decoration-line:none;text-decoration-style:solid;text-indent:0;text-orientation:mixed;text-transform:none;white-space:normal"/>
     <path transform="matrix(.26458333 0 0 .26458333 1.9076865 288.10791)" d="m35.90625 23.3125-1.333984 1.333984-9.929688 9.921875-1.335937 1.335938 2e-3 2e-3h5.341797l7.255859-7.251953z" color="#000000" color-rendering="auto" dominant-baseline="auto" image-rendering="auto" solid-color="#000000" style="font-feature-settings:normal;font-variant-alternates:normal;font-variant-caps:normal;font-variant-ligatures:normal;font-variant-numeric:normal;font-variant-position:normal;isolation:auto;mix-blend-mode:normal;shape-padding:0;text-decoration-color:#000000;text-decoration-line:none;text-decoration-style:solid;text-indent:0;text-orientation:mixed;text-transform:none;white-space:normal"/>
    </g>
    <g stroke-width=".18520834">
     <path d="m6.6501365-8.8184275-0.1240751 0.122989-4.6374428 4.6388905-0.124437 0.12299 3.612e-4 3.7e-4h0.4955776l4.3900161-4.3914715z" color="#000000" color-rendering="auto" dominant-baseline="auto" fill="#4fcc00" image-rendering="auto" solid-color="#000000" style="font-feature-settings:normal;font-variant-alternates:normal;font-variant-caps:normal;font-variant-ligatures:normal;font-variant-numeric:normal;font-variant-position:normal;isolation:auto;mix-blend-mode:normal;shape-padding:0;text-decoration-color:#000000;text-decoration-line:none;text-decoration-style:solid;text-indent:0;text-orientation:mixed;text-transform:none;white-space:normal"/>
     <path d="m0.58637241-10.233174-0.23621296 0.2362135v1.980499l3.6116e-4 3.71e-4 0.4948535-0.496301 1.22628179-1.226282 0.4944918-0.4944915z" color="#000000" color-rendering="auto" dominant-baseline="auto" fill="#e5bf03" image-rendering="auto" solid-color="#000000" style="font-feature-settings:normal;font-variant-alternates:normal;font-variant-caps:normal;font-variant-ligatures:normal;font-variant-numeric:normal;font-variant-position:normal;isolation:auto;mix-blend-mode:normal;shape-padding:0;text-decoration-color:#000000;text-decoration-line:none;text-decoration-style:solid;text-indent:0;text-orientation:mixed;text-transform:none;white-space:normal"/>
     <path d="m2.2778453-10.233174-1.92768585 1.9273245v0.990792l3.6116e-4 3.71e-4 0.24742675-0.248874 2.42254004-2.422548 0.247065-0.2470655z" color="#000000" color-rendering="auto" dominant-baseline="auto" fill="#4fcc00" image-rendering="auto" solid-color="#000000" style="font-feature-settings:normal;font-variant-alternates:normal;font-variant-caps:normal;font-variant-ligatures:normal;font-variant-numeric:normal;font-variant-position:normal;isolation:auto;mix-blend-mode:normal;shape-padding:0;text-decoration-color:#000000;text-decoration-line:none;text-decoration-style:solid;text-indent:0;text-orientation:mixed;text-transform:none;white-space:normal"/>
     <path d="m3.1282844-10.233174-2.77812495 2.7788485v0.989707l3.6116e-4 3.71e-4 0.24742732-0.247436 3.27297857-3.274425 0.2470649-0.2470655z" color="#000000" color-rendering="auto" dominant-baseline="auto" fill="#e5bf03" image-rendering="auto" solid-color="#000000" style="font-feature-settings:normal;font-variant-alternates:normal;font-variant-caps:normal;font-variant-ligatures:normal;font-variant-numeric:normal;font-variant-position:normal;isolation:auto;mix-blend-mode:normal;shape-padding:0;text-decoration-color:#000000;text-decoration-line:none;text-decoration-style:solid;text-indent:0;text-orientation:mixed;text-transform:none;white-space:normal"/>
    </g>
   </g>
  </g>
 </g>
 <rect x="1.500001" y="1.4999971" width="7" height="7" stroke-width=".69999999"/>
 <g>
  <rect x="1.8499994" y="1.8500004" width="6.3000002" height="6.3000002" fill="#f20029" stroke-width=".69999999"/>
  <g shape-rendering="auto">
   <path d="m8.150137 4.4434378-3.706337 3.7063371 3.7e-4 3.704e-4h0.989345l2.716622-2.7166387z" color="#000000" color-rendering="auto" dominant-baseline="auto" fill="#28e600" image-rendering="auto" solid-color="#000000" stroke-width=".18520834" style="font-feature-settings:normal;font-variant-alternates:normal;font-variant-caps:normal;font-variant-ligatures:normal;font-variant-numeric:normal;font-variant-position:normal;isolation:auto;mix-blend-mode:normal;shape-padding:0;text-decoration-color:#000000;text-decoration-line:none;text-decoration-style:solid;text-indent:0;text-orientation:mixed;text-transform:none;white-space:normal"/>
   <path d="m7.655283 1.8501595-5.805124 5.8047619v0.4952152h0.494854l5.805124-5.8051241v-0.494853z" color="#000000" color-rendering="auto" dominant-baseline="auto" fill="#28e600" image-rendering="auto" solid-color="#000000" stroke-width=".18520834" style="font-feature-settings:normal;font-variant-alternates:normal;font-variant-caps:normal;font-variant-ligatures:normal;font-variant-numeric:normal;font-variant-position:normal;isolation:auto;mix-blend-mode:normal;shape-padding:0;text-decoration-color:#000000;text-decoration-line:none;text-decoration-style:solid;text-indent:0;text-orientation:mixed;text-transform:none;white-space:normal"/>
   <g transform="matrix(.7 0 0 .7 .164619 -200.17554)" fill="#f2de00">
    <path transform="matrix(.26458333 0 0 .26458333 1.9076865 288.10791)" d="m27.607422 1.890625-25.716797 25.716797v2.669922l0.00195 2e-3 0.6640656-0.66411 27.0546874-27.0546871 0.669922-0.6699219z" color="#000000" color-rendering="auto" dominant-baseline="auto" image-rendering="auto" solid-color="#000000" style="font-feature-settings:normal;font-variant-alternates:normal;font-variant-caps:normal;font-variant-ligatures:normal;font-variant-numeric:normal;font-variant-position:normal;isolation:auto;mix-blend-mode:normal;shape-padding:0;text-decoration-color:#000000;text-decoration-line:none;text-decoration-style:solid;text-indent:0;text-orientation:mixed;text-transform:none;white-space:normal"/>
    <path transform="matrix(.26458333 0 0 .26458333 1.9076865 288.10791)" d="m35.90625 11.876953-1.333984 1.333985-21.363282 21.357421-1.33789 1.335938 2e-3 2e-3h5.341797l18.691359-18.683641z" color="#000000" color-rendering="auto" dominant-baseline="auto" image-rendering="auto" solid-color="#000000" style="font-feature-settings:normal;font-variant-alternates:normal;font-variant-caps:normal;font-variant-ligatures:normal;font-variant-numeric:normal;font-variant-position:normal;isolation:auto;mix-blend-mode:normal;shape-padding:0;text-decoration-color:#000000;text-decoration-line:none;text-decoration-style:solid;text-indent:0;text-orientation:mixed;text-transform:none;white-space:normal"/>
    <path transform="matrix(.26458333 0 0 .26458333 1.9076865 288.10791)" d="m35.90625 23.3125-1.333984 1.333984-9.929688 9.921875-1.335937 1.335938 2e-3 2e-3h5.341797l7.255859-7.251953z" color="#000000" color-rendering="auto" dominant-baseline="auto" image-rendering="auto" solid-color="#000000" style="font-feature-settings:normal;font-variant-alternates:normal;font-variant-caps:normal;font-variant-ligatures:normal;font-variant-numeric:normal;font-variant-position:normal;isolation:auto;mix-blend-mode:normal;shape-padding:0;text-decoration-color:#000000;text-decoration-line:none;text-decoration-style:solid;text-indent:0;text-orientation:mixed;text-transform:none;white-space:normal"/>
   </g>
   <g stroke-width=".18520834">
    <path d="m8.150137 3.2649052-0.124076 0.1229898-4.637442 4.6388899-0.124437 0.12299 3.61e-4 3.704e-4h0.495577l4.390017-4.3914719z" color="#000000" color-rendering="auto" dominant-baseline="auto" fill="#28e600" image-rendering="auto" solid-color="#000000" style="font-feature-settings:normal;font-variant-alternates:normal;font-variant-caps:normal;font-variant-ligatures:normal;font-variant-numeric:normal;font-variant-position:normal;isolation:auto;mix-blend-mode:normal;shape-padding:0;text-decoration-color:#000000;text-decoration-line:none;text-decoration-style:solid;text-indent:0;text-orientation:mixed;text-transform:none;white-space:normal"/>
    <path d="m2.086372 1.8501595-0.236213 0.236213v1.9804992l3.62e-4 3.704e-4 0.494853-0.4963003 1.226282-1.2262818 0.494492-0.4944918z" color="#000000" color-rendering="auto" dominant-baseline="auto" fill="#f2de00" image-rendering="auto" solid-color="#000000" style="font-feature-settings:normal;font-variant-alternates:normal;font-variant-caps:normal;font-variant-ligatures:normal;font-variant-numeric:normal;font-variant-position:normal;isolation:auto;mix-blend-mode:normal;shape-padding:0;text-decoration-color:#000000;text-decoration-line:none;text-decoration-style:solid;text-indent:0;text-orientation:mixed;text-transform:none;white-space:normal"/>
    <path d="m3.777845 1.8501595-1.927686 1.9273242v0.9907921l3.62e-4 3.704e-4 0.247426-0.2488736 2.42254-2.4225481 0.247065-0.247065z" color="#000000" color-rendering="auto" dominant-baseline="auto" fill="#28e600" image-rendering="auto" solid-color="#000000" style="font-feature-settings:normal;font-variant-alternates:normal;font-variant-caps:normal;font-variant-ligatures:normal;font-variant-numeric:normal;font-variant-position:normal;isolation:auto;mix-blend-mode:normal;shape-padding:0;text-decoration-color:#000000;text-decoration-line:none;text-decoration-style:solid;text-indent:0;text-orientation:mixed;text-transform:none;white-space:normal"/>
    <path d="m4.628284 1.8501595-2.778125 2.7788484v0.989707l3.62e-4 3.704e-4 0.247427-0.2474354 3.272979-3.2744254 0.247064-0.247065z" color="#000000" color-rendering="auto" dominant-baseline="auto" fill="#f2de00" image-rendering="auto" solid-color="#000000" style="font-feature-settings:normal;font-variant-alternates:normal;font-variant-caps:normal;font-variant-ligatures:normal;font-variant-numeric:normal;font-variant-position:normal;isolation:auto;mix-blend-mode:normal;shape-padding:0;text-decoration-color:#000000;text-decoration-line:none;text-decoration-style:solid;text-indent:0;text-orientation:mixed;text-transform:none;white-space:normal"/>
   </g>
  </g>
 </g>
 <g transform="matrix(.7 0 0 .7 1.6646194 -198.67554)">
  <rect x="1.9076865" y="288.10791" width="10" height="10"/>
  <text x="0.8504464" y="292.29892" fill="#000000" font-family="sans-serif" font-size="10.58333302px" letter-spacing="0px" stroke-width=".26458332" word-spacing="0px" style="line-height:1.25" xml:space="preserve"><tspan x="0.8504464" y="301.66269" stroke-width=".26458332"/></text>
  <g clip-path="url(#clipPath1480-4)">
   <rect x="2.4076865" y="288.60791" width="9" height="9" fill="#f00"/>
   <g shape-rendering="auto">
    <path transform="matrix(.26458333 0 0 .26458333 1.9076865 288.10791)" d="m35.90625 15.892578-20.011719 20.011719 2e-3 2e-3h5.341797l14.667922-14.668016z" color="#000000" color-rendering="auto" dominant-baseline="auto" fill="#0f0" image-rendering="auto" solid-color="#000000" style="font-feature-settings:normal;font-variant-alternates:normal;font-variant-caps:normal;font-variant-ligatures:normal;font-variant-numeric:normal;font-variant-position:normal;isolation:auto;mix-blend-mode:normal;shape-padding:0;text-decoration-color:#000000;text-decoration-line:none;text-decoration-style:solid;text-indent:0;text-orientation:mixed;text-transform:none;white-space:normal"/>
    <path transform="matrix(.26458333 0 0 .26458333 1.9076865 288.10791)" d="m33.234375 1.890625-31.34375 31.341797v2.673828h2.671875l31.34375-31.34375v-2.671875z" color="#000000" color-rendering="auto" dominant-baseline="auto" fill="#0f0" image-rendering="auto" solid-color="#000000" style="font-feature-settings:normal;font-variant-alternates:normal;font-variant-caps:normal;font-variant-ligatures:normal;font-variant-numeric:normal;font-variant-position:normal;isolation:auto;mix-blend-mode:normal;shape-padding:0;text-decoration-color:#000000;text-decoration-line:none;text-decoration-style:solid;text-indent:0;text-orientation:mixed;text-transform:none;white-space:normal"/>
    <g fill="#ff0">
     <path transform="matrix(.26458333 0 0 .26458333 1.9076865 288.10791)" d="m27.607422 1.890625-25.716797 25.716797v2.669922l0.00195 2e-3 0.6640656-0.66411 27.0546874-27.0546871 0.669922-0.6699219z" color="#000000" color-rendering="auto" dominant-baseline="auto" image-rendering="auto" solid-color="#000000" style="font-feature-settings:normal;font-variant-alternates:normal;font-variant-caps:normal;font-variant-ligatures:normal;font-variant-numeric:normal;font-variant-position:normal;isolation:auto;mix-blend-mode:normal;shape-padding:0;text-decoration-color:#000000;text-decoration-line:none;text-decoration-style:solid;text-indent:0;text-orientation:mixed;text-transform:none;white-space:normal"/>
     <path transform="matrix(.26458333 0 0 .26458333 1.9076865 288.10791)" d="m35.90625 11.876953-1.333984 1.333985-21.363282 21.357421-1.33789 1.335938 2e-3 2e-3h5.341797l18.691359-18.683641z" color="#000000" color-rendering="auto" dominant-baseline="auto" image-rendering="auto" solid-color="#000000" style="font-feature-settings:normal;font-variant-alternates:normal;font-variant-caps:normal;font-variant-ligatures:normal;font-variant-numeric:normal;font-variant-position:normal;isolation:auto;mix-blend-mode:normal;shape-padding:0;text-decoration-color:#000000;text-decoration-line:none;text-decoration-style:solid;text-indent:0;text-orientation:mixed;text-transform:none;white-space:normal"/>
     <path transform="matrix(.26458333 0 0 .26458333 1.9076865 288.10791)" d="m35.90625 23.3125-1.333984 1.333984-9.929688 9.921875-1.335937 1.335938 2e-3 2e-3h5.341797l7.255859-7.251953z" color="#000000" color-rendering="auto" dominant-baseline="auto" image-rendering="auto" solid-color="#000000" style="font-feature-settings:normal;font-variant-alternates:normal;font-variant-caps:normal;font-variant-ligatures:normal;font-variant-numeric:normal;font-variant-position:normal;isolation:auto;mix-blend-mode:normal;shape-padding:0;text-decoration-color:#000000;text-decoration-line:none;text-decoration-style:solid;text-indent:0;text-orientation:mixed;text-transform:none;white-space:normal"/>
    </g>
    <path transform="matrix(.26458333 0 0 .26458333 1.9076865 288.10791)" d="m35.90625 9.5292969-0.669922 0.6640621-25.039062 25.046875-0.6718754 0.664063 0.00195 2e-3h2.6757844l23.703125-23.710985z" color="#000000" color-rendering="auto" dominant-baseline="auto" fill="#0f0" image-rendering="auto" solid-color="#000000" style="font-feature-settings:normal;font-variant-alternates:normal;font-variant-caps:normal;font-variant-ligatures:normal;font-variant-numeric:normal;font-variant-position:normal;isolation:auto;mix-blend-mode:normal;shape-padding:0;text-decoration-color:#000000;text-decoration-line:none;text-decoration-style:solid;text-indent:0;text-orientation:mixed;text-transform:none;white-space:normal"/>
    <path transform="matrix(.26458333 0 0 .26458333 1.9076865 288.10791)" d="m3.1660156 1.890625-1.2753906 1.2753906v10.6933594l0.00195 2e-3 2.671875-2.679687 6.621094-6.6210941 2.669922-2.6699219z" color="#000000" color-rendering="auto" dominant-baseline="auto" fill="#ff0" image-rendering="auto" solid-color="#000000" style="font-feature-settings:normal;font-variant-alternates:normal;font-variant-caps:normal;font-variant-ligatures:normal;font-variant-numeric:normal;font-variant-position:normal;isolation:auto;mix-blend-mode:normal;shape-padding:0;text-decoration-color:#000000;text-decoration-line:none;text-decoration-style:solid;text-indent:0;text-orientation:mixed;text-transform:none;white-space:normal"/>
    <path transform="matrix(.26458333 0 0 .26458333 1.9076865 288.10791)" d="m12.298828 1.890625-10.408203 10.40625v5.349609l0.00195 2e-3 1.3359375-1.34375 13.0800815-13.0801246 1.333984-1.3339844z" color="#000000" color-rendering="auto" dominant-baseline="auto" fill="#0f0" image-rendering="auto" solid-color="#000000" style="font-feature-settings:normal;font-variant-alternates:normal;font-variant-caps:normal;font-variant-ligatures:normal;font-variant-numeric:normal;font-variant-position:normal;isolation:auto;mix-blend-mode:normal;shape-padding:0;text-decoration-color:#000000;text-decoration-line:none;text-decoration-style:solid;text-indent:0;text-orientation:mixed;text-transform:none;white-space:normal"/>
    <path transform="matrix(.26458333 0 0 .26458333 1.9076865 288.10791)" d="m16.890625 1.890625-15 15.003906v5.34375l0.00195 2e-3 1.3359406-1.335984 17.6718754-17.6796876 1.333984-1.3339844z" color="#000000" color-rendering="auto" dominant-baseline="auto" fill="#ff0" image-rendering="auto" solid-color="#000000" style="font-feature-settings:normal;font-variant-alternates:normal;font-variant-caps:normal;font-variant-ligatures:normal;font-variant-numeric:normal;font-variant-position:normal;isolation:auto;mix-blend-mode:normal;shape-padding:0;text-decoration-color:#000000;text-decoration-line:none;text-decoration-style:solid;text-indent:0;text-orientation:mixed;text-transform:none;white-space:normal"/>
   </g>
  </g>
  <path d="m9.8958292 294.11891v1.48931h-7.4873981v1.99988h8.9994509v-3.48919z" fill="#fff"/>
  <rect x="8.4070311" y="294.11932" width="1.488798" height="1.488798" fill="#0ff" stroke="#000" stroke-linecap="square" stroke-linejoin="round" stroke-width=".5"/>
 </g>
</svg>
