<svg width="10mm" height="10mm" version="1.1" viewBox="0 0 10 10" xmlns="http://www.w3.org/2000/svg">
 <title>TDSpaceTransformation_1</title>
 <g transform="translate(-1.9076865,-288.10791)">
  <rect x="1.9076865" y="288.10791" width="10" height="10" fill="#fff"/>
  <text x="0.8504464" y="292.29892" fill="#000000" font-family="sans-serif" font-size="7.05555556px" letter-spacing="0px" stroke-width=".26458332" word-spacing="0px" style="line-height:1.25" xml:space="preserve"><tspan x="0.8504464" y="301.66269" font-size="7.05555556px" stroke-width=".26458332"/></text>
  <text transform="rotate(-90)" x="-297.35751" y="6.5925751" fill="#000000" font-family="sans-serif" font-size="7.05555534px" letter-spacing="0px" stroke-width=".26458332" word-spacing="0px" style="line-height:1.25" xml:space="preserve"><tspan x="-297.35751" y="6.5925751" fill="#00ffff" font-family="'Source Code Pro'" font-size="7.05555534px" font-weight="bold" stroke="#000000" stroke-width=".26458332">CS</tspan></text>
  <g fill="#f00">
   <path d="m9.6573366 295.64581c0.3016993 0.28351 0.3164678 0.75845 0.032965 1.06015-0.2835023 0.3017-0.7584485 0.31647-1.0601478 0.033-0.3016992-0.2835-0.3164677-0.75845-0.032965-1.06015 0.2835023-0.3017 0.7584485-0.31647 1.0601478-0.033z" fill-rule="evenodd" stroke="#f00" stroke-width=".15pt"/>
   <path d="m11.772269 289.03213-0.529488 2.18475-1.6279595-1.55314z" fill-rule="evenodd" stroke="#f00" stroke-width=".2"/>
   <path d="m10.621094 289.86133-1.9257817 2.01758a0.250025 0.250025 0 0 0 0.0078 0.35351l2.0039067 1.93164-1.7343757 1.84571 0.363282 0.34375 1.9042967-2.02735a0.250025 0.250025 0 0 0-0.0098-0.34961l-2.0019537-1.93164 1.7539067-1.83789z" color="#000000" color-rendering="auto" dominant-baseline="auto" image-rendering="auto" shape-rendering="auto" solid-color="#000000" style="font-feature-settings:normal;font-variant-alternates:normal;font-variant-caps:normal;font-variant-ligatures:normal;font-variant-numeric:normal;font-variant-position:normal;isolation:auto;mix-blend-mode:normal;shape-padding:0;text-decoration-color:#000000;text-decoration-line:none;text-decoration-style:solid;text-indent:0;text-orientation:mixed;text-transform:none;white-space:normal"/>
  </g>
 </g>
</svg>
