<svg width="10mm" height="10mm" version="1.1" viewBox="0 0 10 10" xmlns="http://www.w3.org/2000/svg">
 <title>TDText</title>
 <g transform="translate(-1.9076865,-288.10791)">
  <rect x="1.9076865" y="288.10791" width="10" height="10" fill="#fff"/>
  <g>
   <text x="0.8504464" y="292.29892" fill="#000000" font-family="sans-serif" font-size="10.58333302px" letter-spacing="0px" stroke-width=".26458332" word-spacing="0px" style="line-height:1.25" xml:space="preserve"><tspan x="0.8504464" y="301.66269" stroke-width=".26458332"/></text>
   <path d="m7.4296185 291.03828v4.14445h0.7131347q0.3824056 0 0.5426026 0.14986 0.1653645 0.14469 0.1653645 0.38241 0 0.23254-0.1653645 0.3824-0.160197 0.1447-0.5426026 0.1447h-2.4804686q-0.3824056 0-0.5477702-0.1447-0.1601969-0.14986-0.1601969-0.38757 0-0.23255 0.1601969-0.37724 0.1653646-0.14986 0.5477702-0.14986h0.7079671v-4.14445h-1.1472168v1.00252q0 0.38241-0.1498617 0.54777-0.144694 0.1602-0.3824055 0.1602-0.232544 0-0.3824056-0.1602-0.144694-0.16536-0.144694-0.54777v-2.06706l5.4880369 5e-3v2.06189q0 0.38241-0.1498616 0.54777-0.144694 0.1602-0.3824056 0.1602-0.232544 0-0.3824056-0.1602-0.144694-0.16536-0.144694-0.54777v-1.00252z" fill="#0f0" stroke="#000" stroke-linejoin="round" stroke-width=".265"/>
   <path d="m11.775395 290.57319v6.30453q0 0.5426-0.02584 0.64595-0.04134 0.15503-0.186036 0.26355-0.139526 0.10852-0.315226 0.10852-0.180867 0-0.325561-0.10852-0.139527-0.10852-0.180868-0.27388-0.02584-0.093-0.02584-0.63562v-6.30453q0-0.5426 0.02584-0.64595 0.04134-0.15503 0.180868-0.26355 0.144694-0.10852 0.325561-0.10852 0.1757 0 0.315226 0.10852 0.144694 0.10852 0.186036 0.26871 0.02584 0.10336 0.02584 0.64079z" fill="#0ff" stroke="#000" stroke-linejoin="round" stroke-width=".26458332"/>
  </g>
 </g>
</svg>
