<svg width="10mm" height="10mm" version="1.1" viewBox="0 0 10 10" xmlns="http://www.w3.org/2000/svg">
 <title>TDImage</title>
 <defs>
  <clipPath id="clipPath1480">
   <path d="m2.4079144 288.60814v7.00009h5.999117v-1.48932h3.0008506v-5.51077h-3.0008506z" fill="#fff"/>
  </clipPath>
 </defs>
 <g transform="translate(-1.9076865,-288.10791)">
  <rect x="1.9076865" y="288.10791" width="10" height="10"/>
  <text x="0.8504464" y="292.29892" fill="#000000" font-family="sans-serif" font-size="10.58333302px" letter-spacing="0px" stroke-width=".26458332" word-spacing="0px" style="line-height:1.25" xml:space="preserve"><tspan x="0.8504464" y="301.66269" stroke-width=".26458332"/></text>
  <g clip-path="url(#clipPath1480)">
   <rect x="2.4076865" y="288.60791" width="9" height="9" fill="#f00"/>
   <g shape-rendering="auto">
    <path transform="matrix(.26458333 0 0 .26458333 1.9076865 288.10791)" d="m35.90625 15.892578-20.011719 20.011719 2e-3 2e-3h5.341797l14.667922-14.668016z" color="#000000" color-rendering="auto" dominant-baseline="auto" fill="#0f0" image-rendering="auto" solid-color="#000000" style="font-feature-settings:normal;font-variant-alternates:normal;font-variant-caps:normal;font-variant-ligatures:normal;font-variant-numeric:normal;font-variant-position:normal;isolation:auto;mix-blend-mode:normal;shape-padding:0;text-decoration-color:#000000;text-decoration-line:none;text-decoration-style:solid;text-indent:0;text-orientation:mixed;text-transform:none;white-space:normal"/>
    <path transform="matrix(.26458333 0 0 .26458333 1.9076865 288.10791)" d="m33.234375 1.890625-31.34375 31.341797v2.673828h2.671875l31.34375-31.34375v-2.671875z" color="#000000" color-rendering="auto" dominant-baseline="auto" fill="#0f0" image-rendering="auto" solid-color="#000000" style="font-feature-settings:normal;font-variant-alternates:normal;font-variant-caps:normal;font-variant-ligatures:normal;font-variant-numeric:normal;font-variant-position:normal;isolation:auto;mix-blend-mode:normal;shape-padding:0;text-decoration-color:#000000;text-decoration-line:none;text-decoration-style:solid;text-indent:0;text-orientation:mixed;text-transform:none;white-space:normal"/>
    <g fill="#ff0">
     <path transform="matrix(.26458333 0 0 .26458333 1.9076865 288.10791)" d="m27.607422 1.890625-25.716797 25.716797v2.669922l0.00195 2e-3 0.6640656-0.66411 27.0546874-27.0546871 0.669922-0.6699219z" color="#000000" color-rendering="auto" dominant-baseline="auto" image-rendering="auto" solid-color="#000000" style="font-feature-settings:normal;font-variant-alternates:normal;font-variant-caps:normal;font-variant-ligatures:normal;font-variant-numeric:normal;font-variant-position:normal;isolation:auto;mix-blend-mode:normal;shape-padding:0;text-decoration-color:#000000;text-decoration-line:none;text-decoration-style:solid;text-indent:0;text-orientation:mixed;text-transform:none;white-space:normal"/>
     <path transform="matrix(.26458333 0 0 .26458333 1.9076865 288.10791)" d="m35.90625 11.876953-1.333984 1.333985-21.363282 21.357421-1.33789 1.335938 2e-3 2e-3h5.341797l18.691359-18.683641z" color="#000000" color-rendering="auto" dominant-baseline="auto" image-rendering="auto" solid-color="#000000" style="font-feature-settings:normal;font-variant-alternates:normal;font-variant-caps:normal;font-variant-ligatures:normal;font-variant-numeric:normal;font-variant-position:normal;isolation:auto;mix-blend-mode:normal;shape-padding:0;text-decoration-color:#000000;text-decoration-line:none;text-decoration-style:solid;text-indent:0;text-orientation:mixed;text-transform:none;white-space:normal"/>
     <path transform="matrix(.26458333 0 0 .26458333 1.9076865 288.10791)" d="m35.90625 23.3125-1.333984 1.333984-9.929688 9.921875-1.335937 1.335938 2e-3 2e-3h5.341797l7.255859-7.251953z" color="#000000" color-rendering="auto" dominant-baseline="auto" image-rendering="auto" solid-color="#000000" style="font-feature-settings:normal;font-variant-alternates:normal;font-variant-caps:normal;font-variant-ligatures:normal;font-variant-numeric:normal;font-variant-position:normal;isolation:auto;mix-blend-mode:normal;shape-padding:0;text-decoration-color:#000000;text-decoration-line:none;text-decoration-style:solid;text-indent:0;text-orientation:mixed;text-transform:none;white-space:normal"/>
    </g>
    <path transform="matrix(.26458333 0 0 .26458333 1.9076865 288.10791)" d="m35.90625 9.5292969-0.669922 0.6640621-25.039062 25.046875-0.6718754 0.664063 0.00195 2e-3h2.6757844l23.703125-23.710985z" color="#000000" color-rendering="auto" dominant-baseline="auto" fill="#0f0" image-rendering="auto" solid-color="#000000" style="font-feature-settings:normal;font-variant-alternates:normal;font-variant-caps:normal;font-variant-ligatures:normal;font-variant-numeric:normal;font-variant-position:normal;isolation:auto;mix-blend-mode:normal;shape-padding:0;text-decoration-color:#000000;text-decoration-line:none;text-decoration-style:solid;text-indent:0;text-orientation:mixed;text-transform:none;white-space:normal"/>
    <path transform="matrix(.26458333 0 0 .26458333 1.9076865 288.10791)" d="m3.1660156 1.890625-1.2753906 1.2753906v10.6933594l0.00195 2e-3 2.671875-2.679687 6.621094-6.6210941 2.669922-2.6699219z" color="#000000" color-rendering="auto" dominant-baseline="auto" fill="#ff0" image-rendering="auto" solid-color="#000000" style="font-feature-settings:normal;font-variant-alternates:normal;font-variant-caps:normal;font-variant-ligatures:normal;font-variant-numeric:normal;font-variant-position:normal;isolation:auto;mix-blend-mode:normal;shape-padding:0;text-decoration-color:#000000;text-decoration-line:none;text-decoration-style:solid;text-indent:0;text-orientation:mixed;text-transform:none;white-space:normal"/>
    <path transform="matrix(.26458333 0 0 .26458333 1.9076865 288.10791)" d="m12.298828 1.890625-10.408203 10.40625v5.349609l0.00195 2e-3 1.3359375-1.34375 13.0800815-13.0801246 1.333984-1.3339844z" color="#000000" color-rendering="auto" dominant-baseline="auto" fill="#0f0" image-rendering="auto" solid-color="#000000" style="font-feature-settings:normal;font-variant-alternates:normal;font-variant-caps:normal;font-variant-ligatures:normal;font-variant-numeric:normal;font-variant-position:normal;isolation:auto;mix-blend-mode:normal;shape-padding:0;text-decoration-color:#000000;text-decoration-line:none;text-decoration-style:solid;text-indent:0;text-orientation:mixed;text-transform:none;white-space:normal"/>
    <path transform="matrix(.26458333 0 0 .26458333 1.9076865 288.10791)" d="m16.890625 1.890625-15 15.003906v5.34375l0.00195 2e-3 1.3359406-1.335984 17.6718754-17.6796876 1.333984-1.3339844z" color="#000000" color-rendering="auto" dominant-baseline="auto" fill="#ff0" image-rendering="auto" solid-color="#000000" style="font-feature-settings:normal;font-variant-alternates:normal;font-variant-caps:normal;font-variant-ligatures:normal;font-variant-numeric:normal;font-variant-position:normal;isolation:auto;mix-blend-mode:normal;shape-padding:0;text-decoration-color:#000000;text-decoration-line:none;text-decoration-style:solid;text-indent:0;text-orientation:mixed;text-transform:none;white-space:normal"/>
   </g>
  </g>
  <path d="m9.8958292 294.11891v1.48931h-7.4873981v1.99988h8.9994509v-3.48919z" fill="#fff"/>
  <rect x="8.4070311" y="294.11932" width="1.488798" height="1.488798" fill="#0ff" stroke="#000" stroke-linecap="square" stroke-linejoin="round" stroke-width=".5"/>
 </g>
</svg>
